# xmcd
#
# Track frame offsets:
#	150
#	20260
#	47246
#	61251
#	85269
#
# Disc length: 2275 seconds
#
# Revision: 1
# Processed by: cddbd v1.5.2PL0 Copyright (c) Steve Scherf et al.
# Submitted via: audiograbber 1.83.01
#
DISCID=3608e105
DTITLE=Golden Earring - Complete Studio Recordings [CD 05) - Eight Miles High [
DTITLE=remastered 2017]
DYEAR=1969
DGENRE=Rock
TTITLE0=The Golden Earring - Landing
TTITLE1=The Golden Earring - Song Of A Devil's Servant
TTITLE2=The Golden Earring - One Huge Road
TTITLE3=The Golden Earring - Everyday's Torture
TTITLE4=The Golden Earring - Eight Miles High
EXTD=
EXTT0=
EXTT1=
EXTT2=
EXTT3=
EXTT4=
PLAYORDER=
